<?xml version="1.0" encoding="utf-8" standalone="no"?>
<!DOCTYPE svg PUBLIC "-//W3C//DTD SVG 1.1//EN"
  "http://www.w3.org/Graphics/SVG/1.1/DTD/svg11.dtd">
<svg xmlns:xlink="http://www.w3.org/1999/xlink" width="591.6pt" height="435.374599pt" viewBox="0 0 591.6 435.374599" xmlns="http://www.w3.org/2000/svg" version="1.1">
 <metadata>
  <rdf:RDF xmlns:dc="http://purl.org/dc/elements/1.1/" xmlns:cc="http://creativecommons.org/ns#" xmlns:rdf="http://www.w3.org/1999/02/22-rdf-syntax-ns#">
   <cc:Work>
    <dc:type rdf:resource="http://purl.org/dc/dcmitype/StillImage"/>
    <dc:date>2025-05-18T19:09:47.909854</dc:date>
    <dc:format>image/svg+xml</dc:format>
    <dc:creator>
     <cc:Agent>
      <dc:title>Matplotlib v3.9.2, https://matplotlib.org/</dc:title>
     </cc:Agent>
    </dc:creator>
   </cc:Work>
  </rdf:RDF>
 </metadata>
 <defs>
  <style type="text/css">*{stroke-linejoin: round; stroke-linecap: butt}</style>
 </defs>
 <g id="figure_1">
  <g id="patch_1">
   <path d="M 0 435.374599 
L 591.6 435.374599 
L 591.6 0 
L 0 0 
z
" style="fill: #ffffff"/>
  </g>
  <g id="axes_1">
   <g id="line2d_1">
    <path d="M 32.563636 345.998781 
L 37.649077 352.82195 
L 42.734518 359.221977 
L 47.819959 365.198861 
L 52.9054 370.752603 
L 57.990841 375.883203 
L 61.804921 379.453466 
L 65.619002 382.785711 
L 69.433083 385.879939 
L 73.247163 388.736149 
L 77.061244 391.354342 
L 80.875325 393.734517 
L 84.689405 395.876674 
L 88.503486 397.780815 
L 92.317567 399.446937 
L 96.131647 400.875042 
L 99.945728 402.06513 
L 103.759809 403.0172 
L 107.573889 403.731253 
L 111.38797 404.207288 
L 115.202051 404.445305 
L 119.016131 404.445305 
L 122.830212 404.207288 
L 126.644293 403.731253 
L 130.458373 403.0172 
L 134.272454 402.06513 
L 138.086535 400.875042 
L 141.900615 399.446937 
L 145.714696 397.780815 
L 149.528776 395.876674 
L 153.342857 393.734517 
L 157.156938 391.354342 
L 160.971018 388.736149 
L 164.785099 385.879939 
L 168.59918 382.785711 
L 172.41326 379.453466 
L 176.227341 375.883203 
L 180.041422 372.074923 
L 185.126863 366.626966 
L 190.212303 360.755867 
L 195.297744 354.461626 
L 200.383185 347.744243 
L 201.654545 345.998781 
L 206.739986 352.82195 
L 211.825427 359.221977 
L 216.910868 365.198861 
L 221.996309 370.752603 
L 227.08175 375.883203 
L 230.89583 379.453466 
L 234.709911 382.785711 
L 238.523992 385.879939 
L 242.338072 388.736149 
L 246.152153 391.354342 
L 249.966234 393.734517 
L 253.780314 395.876674 
L 257.594395 397.780815 
L 261.408476 399.446937 
L 265.222556 400.875042 
L 269.036637 402.06513 
L 272.850718 403.0172 
L 276.664798 403.731253 
L 280.478879 404.207288 
L 284.29296 404.445305 
L 288.10704 404.445305 
L 291.921121 404.207288 
L 295.735202 403.731253 
L 299.549282 403.0172 
L 303.363363 402.06513 
L 307.177444 400.875042 
L 310.991524 399.446937 
L 314.805605 397.780815 
L 318.619686 395.876674 
L 322.433766 393.734517 
L 326.247847 391.354342 
L 330.061928 388.736149 
L 333.876008 385.879939 
L 337.690089 382.785711 
L 341.50417 379.453466 
L 345.31825 375.883203 
L 349.132331 372.074923 
L 354.217772 366.626966 
L 359.303213 360.755867 
L 364.388653 354.461626 
L 369.474094 347.744243 
L 370.745455 345.998781 
L 375.830895 352.82195 
L 380.916336 359.221977 
L 386.001777 365.198861 
L 391.087218 370.752603 
L 396.172659 375.883203 
L 399.98674 379.453466 
L 403.80082 382.785711 
L 407.614901 385.879939 
L 411.428982 388.736149 
L 415.243062 391.354342 
L 419.057143 393.734517 
L 422.871224 395.876674 
L 426.685304 397.780815 
L 430.499385 399.446937 
L 434.313465 400.875042 
L 438.127546 402.06513 
L 441.941627 403.0172 
L 445.755707 403.731253 
L 449.569788 404.207288 
L 453.383869 404.445305 
L 457.197949 404.445305 
L 461.01203 404.207288 
L 464.826111 403.731253 
L 468.640191 403.0172 
L 472.454272 402.06513 
L 476.268353 400.875042 
L 480.082433 399.446937 
L 483.896514 397.780815 
L 487.710595 395.876674 
L 491.524675 393.734517 
L 495.338756 391.354342 
L 499.152837 388.736149 
L 502.966917 385.879939 
L 506.780998 382.785711 
L 510.595079 379.453466 
L 514.409159 375.883203 
L 518.22324 372.074923 
L 523.308681 366.626966 
L 528.394122 360.755867 
L 533.479563 354.461626 
L 538.565003 347.744243 
L 539.836364 345.998781 
L 539.836364 345.998781 
" clip-path="url(#p5ccb5f75d6)" style="fill: none; stroke: #1f77b4; stroke-width: 1.5; stroke-linecap: square"/>
   </g>
   <g id="line2d_2">
    <path d="M 32.563636 345.998781 
L 37.649077 338.75247 
L 42.734518 331.083017 
L 47.819959 322.990421 
L 52.9054 314.474683 
L 57.990841 305.535803 
L 63.076282 296.173781 
L 68.161722 286.388616 
L 73.247163 276.180309 
L 78.332604 265.54886 
L 83.418045 254.494269 
L 89.774846 240.080986 
L 96.131647 225.006543 
L 102.488448 209.270941 
L 108.845249 192.874178 
L 115.202051 175.816256 
L 116.473411 172.325333 
L 117.744771 172.325333 
L 124.101572 189.515487 
L 130.458373 206.044481 
L 136.815174 221.912315 
L 143.171975 237.11899 
L 149.528776 251.664505 
L 155.885578 265.54886 
L 160.971018 276.180309 
L 166.056459 286.388616 
L 171.1419 296.173781 
L 176.227341 305.535803 
L 181.312782 314.474683 
L 186.398223 322.990421 
L 191.483664 331.083017 
L 196.569105 338.75247 
L 201.654545 345.998781 
L 206.739986 338.75247 
L 211.825427 331.083017 
L 216.910868 322.990421 
L 221.996309 314.474683 
L 227.08175 305.535803 
L 232.167191 296.173781 
L 237.252632 286.388616 
L 242.338072 276.180309 
L 247.423513 265.54886 
L 252.508954 254.494269 
L 258.865755 240.080986 
L 265.222556 225.006543 
L 271.579357 209.270941 
L 277.936159 192.874178 
L 284.29296 175.816256 
L 285.56432 172.325333 
L 286.83568 172.325333 
L 293.192481 189.515487 
L 299.549282 206.044481 
L 305.906083 221.912315 
L 312.262884 237.11899 
L 318.619686 251.664505 
L 324.976487 265.54886 
L 330.061928 276.180309 
L 335.147368 286.388616 
L 340.232809 296.173781 
L 345.31825 305.535803 
L 350.403691 314.474683 
L 355.489132 322.990421 
L 360.574573 331.083017 
L 365.660014 338.75247 
L 370.745455 345.998781 
L 375.830895 338.75247 
L 380.916336 331.083017 
L 386.001777 322.990421 
L 391.087218 314.474683 
L 396.172659 305.535803 
L 401.2581 296.173781 
L 406.343541 286.388616 
L 411.428982 276.180309 
L 416.514422 265.54886 
L 421.599863 254.494269 
L 427.956664 240.080986 
L 434.313465 225.006543 
L 440.670267 209.270941 
L 447.027068 192.874178 
L 453.383869 175.816256 
L 454.655229 172.325333 
L 455.926589 172.325333 
L 462.28339 189.515487 
L 468.640191 206.044481 
L 474.996992 221.912315 
L 481.353794 237.11899 
L 487.710595 251.664505 
L 494.067396 265.54886 
L 499.152837 276.180309 
L 504.238278 286.388616 
L 509.323718 296.173781 
L 514.409159 305.535803 
L 519.4946 314.474683 
L 524.580041 322.990421 
L 529.665482 331.083017 
L 534.750923 338.75247 
L 539.836364 345.998781 
L 539.836364 345.998781 
" clip-path="url(#p5ccb5f75d6)" style="fill: none; stroke: #1f77b4; stroke-width: 1.5; stroke-linecap: square"/>
   </g>
   <g id="line2d_3">
    <path d="M 78.332604 50.989291 
L 84.689405 72.278636 
L 91.046206 92.906821 
L 97.403008 112.873846 
L 103.759809 132.179711 
L 110.11661 150.824417 
L 116.473411 168.807963 
L 117.744771 168.807963 
L 124.101572 150.824417 
L 130.458373 132.179711 
L 136.815174 112.873846 
L 143.171975 92.906821 
L 149.528776 72.278636 
L 155.885578 50.989291 
M 247.423513 50.989291 
L 253.780314 72.278636 
L 260.137116 92.906821 
L 266.493917 112.873846 
L 272.850718 132.179711 
L 279.207519 150.824417 
L 285.56432 168.807963 
L 286.83568 168.807963 
L 293.192481 150.824417 
L 299.549282 132.179711 
L 305.906083 112.873846 
L 312.262884 92.906821 
L 318.619686 72.278636 
L 324.976487 50.989291 
M 416.514422 50.989291 
L 422.871224 72.278636 
L 429.228025 92.906821 
L 435.584826 112.873846 
L 441.941627 132.179711 
L 448.298428 150.824417 
L 454.655229 168.807963 
L 455.926589 168.807963 
L 462.28339 150.824417 
L 468.640191 132.179711 
L 474.996992 112.873846 
L 481.353794 92.906821 
L 487.710595 72.278636 
L 494.067396 50.989291 
L 494.067396 50.989291 
" clip-path="url(#p5ccb5f75d6)" style="fill: none; stroke: #1f77b4; stroke-width: 1.5; stroke-linecap: square"/>
   </g>
   <g id="line2d_4">
    <path d="M 32.563636 363.773438 
L 33.834997 363.850325 
L 35.106357 364.078342 
L 36.377717 364.449725 
L 38.920437 365.572462 
L 41.463158 367.100399 
L 44.005878 368.913154 
L 47.819959 371.952547 
L 64.347642 385.679157 
L 69.433083 389.468407 
L 74.518524 392.931496 
L 78.332604 395.297465 
L 82.146685 397.456128 
L 85.960766 399.40176 
L 89.774846 401.130124 
L 93.588927 402.638053 
L 97.403008 403.92316 
L 101.217088 404.983654 
L 105.031169 405.818201 
L 108.845249 406.425832 
L 112.65933 406.805887 
L 116.473411 406.957969 
L 120.287491 406.881924 
L 124.101572 406.577828 
L 127.915653 406.045996 
L 131.729733 405.286996 
L 135.543814 404.30169 
L 139.357895 403.091279 
L 143.171975 401.657392 
L 146.986056 400.002197 
L 150.800137 398.128578 
L 154.614217 396.040373 
L 158.428298 393.742754 
L 163.513739 390.366082 
L 168.59918 386.654945 
L 173.684621 382.64981 
L 180.041422 377.339647 
L 188.940943 369.893869 
L 191.483664 367.97805 
L 194.026384 366.293612 
L 196.569105 364.952603 
L 197.840465 364.449725 
L 199.111825 364.078342 
L 200.383185 363.850325 
L 201.654545 363.773438 
L 202.925906 363.850325 
L 204.197266 364.078342 
L 205.468626 364.449725 
L 208.011347 365.572462 
L 210.554067 367.100399 
L 213.096787 368.913154 
L 216.910868 371.952547 
L 233.438551 385.679157 
L 238.523992 389.468407 
L 243.609433 392.931496 
L 247.423513 395.297465 
L 251.237594 397.456128 
L 255.051675 399.40176 
L 258.865755 401.130124 
L 262.679836 402.638053 
L 266.493917 403.92316 
L 270.307997 404.983654 
L 274.122078 405.818201 
L 277.936159 406.425832 
L 281.750239 406.805887 
L 285.56432 406.957969 
L 289.378401 406.881924 
L 293.192481 406.577828 
L 297.006562 406.045996 
L 300.820643 405.286996 
L 304.634723 404.30169 
L 308.448804 403.091279 
L 312.262884 401.657392 
L 316.076965 400.002197 
L 319.891046 398.128578 
L 323.705126 396.040373 
L 327.519207 393.742754 
L 332.604648 390.366082 
L 337.690089 386.654945 
L 342.77553 382.64981 
L 349.132331 377.339647 
L 358.031852 369.893869 
L 360.574573 367.97805 
L 363.117293 366.293612 
L 365.660014 364.952603 
L 366.931374 364.449725 
L 368.202734 364.078342 
L 369.474094 363.850325 
L 370.745455 363.773438 
L 372.016815 363.850325 
L 373.288175 364.078342 
L 374.559535 364.449725 
L 377.102256 365.572462 
L 379.644976 367.100399 
L 382.187697 368.913154 
L 386.001777 371.952547 
L 402.52946 385.679157 
L 407.614901 389.468407 
L 412.700342 392.931496 
L 416.514422 395.297465 
L 420.328503 397.456128 
L 424.142584 399.40176 
L 427.956664 401.130124 
L 431.770745 402.638053 
L 435.584826 403.92316 
L 439.398906 404.983654 
L 443.212987 405.818201 
L 447.027068 406.425832 
L 450.841148 406.805887 
L 454.655229 406.957969 
L 458.46931 406.881924 
L 462.28339 406.577828 
L 466.097471 406.045996 
L 469.911552 405.286996 
L 473.725632 404.30169 
L 477.539713 403.091279 
L 481.353794 401.657392 
L 485.167874 400.002197 
L 488.981955 398.128578 
L 492.796036 396.040373 
L 496.610116 393.742754 
L 501.695557 390.366082 
L 506.780998 386.654945 
L 511.866439 382.64981 
L 518.22324 377.339647 
L 527.122761 369.893869 
L 529.665482 367.97805 
L 532.208202 366.293612 
L 534.750923 364.952603 
L 536.022283 364.449725 
L 537.293643 364.078342 
L 538.565003 363.850325 
L 539.836364 363.773438 
L 539.836364 363.773438 
" clip-path="url(#p5ccb5f75d6)" style="fill: none; stroke: #ff7f0e; stroke-width: 1.5; stroke-linecap: square"/>
   </g>
   <g id="line2d_5">
    <path d="M 32.563636 329.623831 
L 33.834997 329.537017 
L 35.106357 329.246617 
L 36.377717 328.760414 
L 37.649077 328.090296 
L 38.920437 327.2508 
L 41.463158 325.126488 
L 44.005878 322.508058 
L 46.548599 319.496531 
L 49.091319 316.168628 
L 52.9054 310.701046 
L 56.719481 304.769609 
L 60.533561 298.451883 
L 65.619002 289.510181 
L 70.704443 280.042809 
L 75.789884 270.099314 
L 80.875325 259.718565 
L 87.232126 246.187177 
L 93.588927 232.13729 
L 107.573889 200.973881 
L 110.11661 195.973248 
L 111.38797 193.742717 
L 112.65933 191.780767 
L 113.93069 190.175346 
L 115.202051 189.02511 
L 116.473411 188.421528 
L 117.744771 188.421528 
L 119.016131 189.02511 
L 120.287491 190.175346 
L 121.558852 191.780767 
L 122.830212 193.742717 
L 125.372932 198.40162 
L 127.915653 203.649861 
L 133.001094 214.899913 
L 145.714696 243.414298 
L 152.071497 257.059432 
L 158.428298 270.099314 
L 163.513739 280.042809 
L 168.59918 289.510181 
L 173.684621 298.451883 
L 177.498701 304.769609 
L 181.312782 310.701046 
L 185.126863 316.168628 
L 187.669583 319.496531 
L 190.212303 322.508058 
L 192.755024 325.126488 
L 195.297744 327.2508 
L 196.569105 328.090296 
L 197.840465 328.760414 
L 199.111825 329.246617 
L 200.383185 329.537017 
L 201.654545 329.623831 
L 202.925906 329.537017 
L 204.197266 329.246617 
L 205.468626 328.760414 
L 206.739986 328.090296 
L 208.011347 327.2508 
L 210.554067 325.126488 
L 213.096787 322.508058 
L 215.639508 319.496531 
L 218.182228 316.168628 
L 221.996309 310.701046 
L 225.81039 304.769609 
L 229.62447 298.451883 
L 234.709911 289.510181 
L 239.795352 280.042809 
L 244.880793 270.099314 
L 249.966234 259.718565 
L 256.323035 246.187177 
L 262.679836 232.13729 
L 276.664798 200.973881 
L 279.207519 195.973248 
L 280.478879 193.742717 
L 281.750239 191.780767 
L 283.021599 190.175346 
L 284.29296 189.02511 
L 285.56432 188.421528 
L 286.83568 188.421528 
L 288.10704 189.02511 
L 289.378401 190.175346 
L 290.649761 191.780767 
L 291.921121 193.742717 
L 294.463841 198.40162 
L 297.006562 203.649861 
L 302.092003 214.899913 
L 314.805605 243.414298 
L 321.162406 257.059432 
L 327.519207 270.099314 
L 332.604648 280.042809 
L 337.690089 289.510181 
L 342.77553 298.451883 
L 346.58961 304.769609 
L 350.403691 310.701046 
L 354.217772 316.168628 
L 356.760492 319.496531 
L 359.303213 322.508058 
L 361.845933 325.126488 
L 364.388653 327.2508 
L 365.660014 328.090296 
L 366.931374 328.760414 
L 368.202734 329.246617 
L 369.474094 329.537017 
L 370.745455 329.623831 
L 372.016815 329.537017 
L 373.288175 329.246617 
L 374.559535 328.760414 
L 375.830895 328.090296 
L 377.102256 327.2508 
L 379.644976 325.126488 
L 382.187697 322.508058 
L 384.730417 319.496531 
L 387.273137 316.168628 
L 391.087218 310.701046 
L 394.901299 304.769609 
L 398.715379 298.451883 
L 403.80082 289.510181 
L 408.886261 280.042809 
L 413.971702 270.099314 
L 419.057143 259.718565 
L 425.413944 246.187177 
L 431.770745 232.13729 
L 445.755707 200.973881 
L 448.298428 195.973248 
L 449.569788 193.742717 
L 450.841148 191.780767 
L 452.112509 190.175346 
L 453.383869 189.02511 
L 454.655229 188.421528 
L 455.926589 188.421528 
L 457.197949 189.02511 
L 458.46931 190.175346 
L 459.74067 191.780767 
L 461.01203 193.742717 
L 463.554751 198.40162 
L 466.097471 203.649861 
L 471.182912 214.899913 
L 483.896514 243.414298 
L 490.253315 257.059432 
L 496.610116 270.099314 
L 501.695557 280.042809 
L 506.780998 289.510181 
L 511.866439 298.451883 
L 515.680519 304.769609 
L 519.4946 310.701046 
L 523.308681 316.168628 
L 525.851401 319.496531 
L 528.394122 322.508058 
L 530.936842 325.126488 
L 533.479563 327.2508 
L 534.750923 328.090296 
L 536.022283 328.760414 
L 537.293643 329.246617 
L 538.565003 329.537017 
L 539.836364 329.623831 
L 539.836364 329.623831 
" clip-path="url(#p5ccb5f75d6)" style="fill: none; stroke: #ff7f0e; stroke-width: 1.5; stroke-linecap: square"/>
   </g>
   <g id="line2d_6">
    <path d="M 79.603964 52.699408 
L 85.960766 73.462493 
L 92.317567 93.389139 
L 97.403008 108.626271 
L 101.217088 119.533023 
L 105.031169 129.816725 
L 107.573889 136.161122 
L 110.11661 141.863883 
L 111.38797 144.364421 
L 112.65933 146.542357 
L 113.93069 148.309759 
L 115.202051 149.567978 
L 116.473411 150.225549 
L 117.744771 150.225549 
L 119.016131 149.567978 
L 120.287491 148.309759 
L 121.558852 146.542357 
L 122.830212 144.364421 
L 124.101572 141.863883 
L 126.644293 136.161122 
L 129.187013 129.816725 
L 133.001094 119.533023 
L 136.815174 108.626271 
L 141.900615 93.389139 
L 146.986056 77.518061 
L 153.342857 56.914781 
L 154.614217 52.699408 
M 248.694874 52.699408 
L 255.051675 73.462493 
L 261.408476 93.389139 
L 266.493917 108.626271 
L 270.307997 119.533023 
L 274.122078 129.816725 
L 276.664798 136.161122 
L 279.207519 141.863883 
L 280.478879 144.364421 
L 281.750239 146.542357 
L 283.021599 148.309759 
L 284.29296 149.567978 
L 285.56432 150.225549 
L 286.83568 150.225549 
L 288.10704 149.567978 
L 289.378401 148.309759 
L 290.649761 146.542357 
L 291.921121 144.364421 
L 293.192481 141.863883 
L 295.735202 136.161122 
L 298.277922 129.816725 
L 302.092003 119.533023 
L 305.906083 108.626271 
L 310.991524 93.389139 
L 316.076965 77.518061 
L 322.433766 56.914781 
L 323.705126 52.699408 
M 417.785783 52.699408 
L 424.142584 73.462493 
L 430.499385 93.389139 
L 435.584826 108.626271 
L 439.398906 119.533023 
L 443.212987 129.816725 
L 445.755707 136.161122 
L 448.298428 141.863883 
L 449.569788 144.364421 
L 450.841148 146.542357 
L 452.112509 148.309759 
L 453.383869 149.567978 
L 454.655229 150.225549 
L 455.926589 150.225549 
L 457.197949 149.567978 
L 458.46931 148.309759 
L 459.74067 146.542357 
L 461.01203 144.364421 
L 462.28339 141.863883 
L 464.826111 136.161122 
L 467.368831 129.816725 
L 471.182912 119.533023 
L 474.996992 108.626271 
L 480.082433 93.389139 
L 485.167874 77.518061 
L 491.524675 56.914781 
L 492.796036 52.699408 
L 492.796036 52.699408 
" clip-path="url(#p5ccb5f75d6)" style="fill: none; stroke: #ff7f0e; stroke-width: 1.5; stroke-linecap: square"/>
   </g>
   <g id="patch_2">
    <path d="M 560.082755 404.475057 
Q 285.200007 404.475057 9.199225 404.475057 
" style="fill: none; stroke: #000000; stroke-linecap: round"/>
    <path d="M 553.682755 401.275057 
L 560.082755 404.475057 
L 553.682755 407.675057 
" style="fill: none; stroke: #000000; stroke-linecap: round"/>
   </g>
   <g id="text_1">
    <!-- $ka$ -->
    <g transform="translate(565.2 408.890057) scale(0.16 -0.16)">
     <defs>
      <path id="DejaVuSans-Oblique-6b" d="M 1172 4863 
L 1747 4863 
L 1197 2028 
L 3169 3500 
L 3916 3500 
L 1716 1825 
L 3322 0 
L 2625 0 
L 1131 1709 
L 800 0 
L 225 0 
L 1172 4863 
z
" transform="scale(0.015625)"/>
      <path id="DejaVuSans-Oblique-61" d="M 3438 1997 
L 3047 0 
L 2472 0 
L 2578 531 
Q 2325 219 2001 64 
Q 1678 -91 1281 -91 
Q 834 -91 548 182 
Q 263 456 263 884 
Q 263 1497 752 1853 
Q 1241 2209 2100 2209 
L 2900 2209 
L 2931 2363 
Q 2938 2388 2941 2417 
Q 2944 2447 2944 2509 
Q 2944 2788 2717 2942 
Q 2491 3097 2081 3097 
Q 1800 3097 1504 3025 
Q 1209 2953 897 2809 
L 997 3341 
Q 1322 3463 1633 3523 
Q 1944 3584 2234 3584 
Q 2853 3584 3176 3315 
Q 3500 3047 3500 2534 
Q 3500 2431 3484 2292 
Q 3469 2153 3438 1997 
z
M 2816 1759 
L 2241 1759 
Q 1534 1759 1195 1570 
Q 856 1381 856 984 
Q 856 709 1029 553 
Q 1203 397 1509 397 
Q 1978 397 2328 733 
Q 2678 1069 2791 1631 
L 2816 1759 
z
" transform="scale(0.015625)"/>
     </defs>
     <use xlink:href="#DejaVuSans-Oblique-6b" transform="translate(0 0.015625)"/>
     <use xlink:href="#DejaVuSans-Oblique-61" transform="translate(57.910156 0.015625)"/>
    </g>
   </g>
   <g id="patch_3">
    <path d="M 286.2 27.801964 
Q 286.2 216.05997 286.2 405.436011 
" style="fill: none; stroke: #000000; stroke-linecap: round"/>
    <path d="M 283 34.201964 
L 286.2 27.801964 
L 289.4 34.201964 
" style="fill: none; stroke: #000000; stroke-linecap: round"/>
   </g>
   <g id="text_2">
    <!-- $E$ -->
    <g transform="translate(281.08 19.3575) scale(0.16 -0.16)">
     <defs>
      <path id="DejaVuSans-Oblique-45" d="M 1081 4666 
L 4031 4666 
L 3928 4134 
L 1606 4134 
L 1338 2753 
L 3566 2753 
L 3463 2222 
L 1234 2222 
L 909 531 
L 3284 531 
L 3181 0 
L 172 0 
L 1081 4666 
z
" transform="scale(0.015625)"/>
     </defs>
     <use xlink:href="#DejaVuSans-Oblique-45" transform="translate(0 0.09375)"/>
    </g>
   </g>
   <g id="text_3">
    <!-- $-3\pi$ -->
    <g transform="translate(15.923636 424.847099) scale(0.16 -0.16)">
     <defs>
      <path id="DejaVuSans-2212" d="M 678 2272 
L 4684 2272 
L 4684 1741 
L 678 1741 
L 678 2272 
z
" transform="scale(0.015625)"/>
      <path id="DejaVuSans-33" d="M 2597 2516 
Q 3050 2419 3304 2112 
Q 3559 1806 3559 1356 
Q 3559 666 3084 287 
Q 2609 -91 1734 -91 
Q 1441 -91 1130 -33 
Q 819 25 488 141 
L 488 750 
Q 750 597 1062 519 
Q 1375 441 1716 441 
Q 2309 441 2620 675 
Q 2931 909 2931 1356 
Q 2931 1769 2642 2001 
Q 2353 2234 1838 2234 
L 1294 2234 
L 1294 2753 
L 1863 2753 
Q 2328 2753 2575 2939 
Q 2822 3125 2822 3475 
Q 2822 3834 2567 4026 
Q 2313 4219 1838 4219 
Q 1578 4219 1281 4162 
Q 984 4106 628 3988 
L 628 4550 
Q 988 4650 1302 4700 
Q 1616 4750 1894 4750 
Q 2613 4750 3031 4423 
Q 3450 4097 3450 3541 
Q 3450 3153 3228 2886 
Q 3006 2619 2597 2516 
z
" transform="scale(0.015625)"/>
      <path id="DejaVuSans-Oblique-3c0" d="M 584 3500 
L 3938 3500 
L 3825 2925 
L 3384 2925 
L 2966 775 
Q 2922 550 2981 450 
Q 3038 353 3209 353 
Q 3256 353 3325 363 
Q 3397 369 3419 372 
L 3338 -44 
Q 3222 -84 3103 -103 
Q 2981 -122 2866 -122 
Q 2491 -122 2388 81 
Q 2284 288 2391 838 
L 2797 2925 
L 1506 2925 
L 938 0 
L 350 0 
L 919 2925 
L 472 2925 
L 584 3500 
z
" transform="scale(0.015625)"/>
     </defs>
     <use xlink:href="#DejaVuSans-2212" transform="translate(0 0.78125)"/>
     <use xlink:href="#DejaVuSans-33" transform="translate(83.789062 0.78125)"/>
     <use xlink:href="#DejaVuSans-Oblique-3c0" transform="translate(147.412109 0.78125)"/>
    </g>
   </g>
   <g id="text_4">
    <!-- $-2\pi$ -->
    <g transform="translate(100.469091 424.847099) scale(0.16 -0.16)">
     <defs>
      <path id="DejaVuSans-32" d="M 1228 531 
L 3431 531 
L 3431 0 
L 469 0 
L 469 531 
Q 828 903 1448 1529 
Q 2069 2156 2228 2338 
Q 2531 2678 2651 2914 
Q 2772 3150 2772 3378 
Q 2772 3750 2511 3984 
Q 2250 4219 1831 4219 
Q 1534 4219 1204 4116 
Q 875 4013 500 3803 
L 500 4441 
Q 881 4594 1212 4672 
Q 1544 4750 1819 4750 
Q 2544 4750 2975 4387 
Q 3406 4025 3406 3419 
Q 3406 3131 3298 2873 
Q 3191 2616 2906 2266 
Q 2828 2175 2409 1742 
Q 1991 1309 1228 531 
z
" transform="scale(0.015625)"/>
     </defs>
     <use xlink:href="#DejaVuSans-2212" transform="translate(0 0.78125)"/>
     <use xlink:href="#DejaVuSans-32" transform="translate(83.789062 0.78125)"/>
     <use xlink:href="#DejaVuSans-Oblique-3c0" transform="translate(147.412109 0.78125)"/>
    </g>
   </g>
   <g id="text_5">
    <!-- $-\pi$ -->
    <g transform="translate(190.134545 424.847099) scale(0.16 -0.16)">
     <use xlink:href="#DejaVuSans-2212" transform="translate(0 0.3125)"/>
     <use xlink:href="#DejaVuSans-Oblique-3c0" transform="translate(83.789062 0.3125)"/>
    </g>
   </g>
   <g id="text_6">
    <!-- $0$ -->
    <g transform="translate(281.08 424.847099) scale(0.16 -0.16)">
     <defs>
      <path id="DejaVuSans-30" d="M 2034 4250 
Q 1547 4250 1301 3770 
Q 1056 3291 1056 2328 
Q 1056 1369 1301 889 
Q 1547 409 2034 409 
Q 2525 409 2770 889 
Q 3016 1369 3016 2328 
Q 3016 3291 2770 3770 
Q 2525 4250 2034 4250 
z
M 2034 4750 
Q 2819 4750 3233 4129 
Q 3647 3509 3647 2328 
Q 3647 1150 3233 529 
Q 2819 -91 2034 -91 
Q 1250 -91 836 529 
Q 422 1150 422 2328 
Q 422 3509 836 4129 
Q 1250 4750 2034 4750 
z
" transform="scale(0.015625)"/>
     </defs>
     <use xlink:href="#DejaVuSans-30" transform="translate(0 0.78125)"/>
    </g>
   </g>
   <g id="text_7">
    <!-- $\pi$ -->
    <g transform="translate(365.865455 424.847099) scale(0.16 -0.16)">
     <use xlink:href="#DejaVuSans-Oblique-3c0" transform="translate(0 0.3125)"/>
    </g>
   </g>
   <g id="text_8">
    <!-- $2\pi$ -->
    <g transform="translate(445.370909 424.847099) scale(0.16 -0.16)">
     <use xlink:href="#DejaVuSans-32" transform="translate(0 0.78125)"/>
     <use xlink:href="#DejaVuSans-Oblique-3c0" transform="translate(63.623047 0.78125)"/>
    </g>
   </g>
   <g id="text_9">
    <!-- $3\pi$ -->
    <g transform="translate(529.916364 424.847099) scale(0.16 -0.16)">
     <use xlink:href="#DejaVuSans-33" transform="translate(0 0.78125)"/>
     <use xlink:href="#DejaVuSans-Oblique-3c0" transform="translate(63.623047 0.78125)"/>
    </g>
   </g>
  </g>
 </g>
 <defs>
  <clipPath id="p5ccb5f75d6">
   <rect x="7.2" y="19.3575" width="558" height="388.08"/>
  </clipPath>
 </defs>
</svg>
